<svg width="112" height="114" viewBox="0 0 112 114" fill="none" xmlns="http://www.w3.org/2000/svg">
<path d="M14.375 103.234C14.2552 103.234 14.1224 103.211 13.9766 103.164C13.3047 102.945 12.4844 102.836 11.5156 102.836C11.1979 102.836 10.8307 102.857 10.4141 102.898C10.0026 102.94 9.54427 103.003 9.03906 103.086C9.04948 104.086 9.04948 104.945 9.03906 105.664C9.83073 105.471 10.487 105.375 11.0078 105.375C11.9766 105.375 12.8203 105.419 13.5391 105.508C14.2109 105.591 14.5469 105.945 14.5469 106.57C14.5469 106.872 14.4401 107.125 14.2266 107.328C14.013 107.531 13.7526 107.633 13.4453 107.633C13.1745 107.633 12.7682 107.612 12.2266 107.57C11.6849 107.529 11.2786 107.508 11.0078 107.508C10.6276 107.508 9.97135 107.628 9.03906 107.867V112.766C9.03906 113.068 8.91927 113.32 8.67969 113.523C8.44531 113.727 8.17448 113.828 7.86719 113.828C7.5651 113.828 7.32031 113.727 7.13281 113.523C6.94531 113.326 6.85156 113.073 6.85156 112.766V103.812C6.85156 103.609 6.85417 103.302 6.85938 102.891C6.86979 102.479 6.875 102.172 6.875 101.969C6.875 101.661 6.97656 101.406 7.17969 101.203C7.38802 101 7.64844 100.898 7.96094 100.898C8.15885 100.898 8.33333 100.938 8.48438 101.016C9.08854 100.911 9.64323 100.836 10.1484 100.789C10.6536 100.737 11.1094 100.711 11.5156 100.711C12.1094 100.711 12.8568 100.833 13.7578 101.078C14.888 101.385 15.4531 101.742 15.4531 102.148C15.4531 102.445 15.3464 102.701 15.1328 102.914C14.9245 103.128 14.6719 103.234 14.375 103.234ZM23.9844 112.703C23.3698 112.974 22.4193 113.216 21.1328 113.43C19.9557 113.628 18.9896 113.727 18.2344 113.727C16.9583 113.727 16.3203 113.167 16.3203 112.047C16.3203 112.135 16.3724 111.31 16.4766 109.57C16.612 107.31 16.6797 104.794 16.6797 102.023C16.6797 101.727 16.7812 101.474 16.9844 101.266C17.1927 101.057 17.4531 100.953 17.7656 100.953C18.0781 100.953 18.3385 101.057 18.5469 101.266C18.7552 101.474 18.8594 101.727 18.8594 102.023C18.8594 104.799 18.7891 107.357 18.6484 109.695C18.6016 110.112 18.5521 110.75 18.5 111.609C19.7344 111.589 21.3177 111.286 23.25 110.703C23.3698 110.667 23.4844 110.648 23.5938 110.648C23.9219 110.648 24.1875 110.768 24.3906 111.008C24.5729 111.221 24.6641 111.461 24.6641 111.727C24.6641 112.174 24.4375 112.5 23.9844 112.703ZM33.6719 111.648C33.2917 112.164 32.8333 112.594 32.2969 112.938C31.6406 113.354 30.9661 113.562 30.2734 113.562C28.9453 113.562 27.9583 113.307 27.3125 112.797C25.9479 111.719 25.2656 109.846 25.2656 107.18C25.2656 106.924 25.2786 106.544 25.3047 106.039C25.3307 105.534 25.3438 105.154 25.3438 104.898C25.3438 104.695 25.349 104.393 25.3594 103.992C25.3698 103.586 25.375 103.281 25.375 103.078C25.375 102.661 25.4505 102.268 25.6016 101.898C25.8047 101.409 26.0885 101.164 26.4531 101.164C26.7396 101.164 26.9922 101.258 27.2109 101.445C27.4505 101.643 27.5703 101.898 27.5703 102.211C27.5703 102.508 27.5651 102.958 27.5547 103.562C27.5495 104.161 27.5469 104.612 27.5469 104.914C27.5469 105.164 27.5339 105.542 27.5078 106.047C27.4818 106.552 27.4688 106.93 27.4688 107.18C27.4688 107.987 27.5625 108.737 27.75 109.43C27.9688 110.258 28.2891 110.836 28.7109 111.164C28.9297 111.336 29.4505 111.427 30.2734 111.438C31.6484 111.458 32.5755 110.286 33.0547 107.922C33.3047 106.698 33.4297 104.979 33.4297 102.766C33.4297 102.474 33.5156 102.193 33.6875 101.922C33.9219 101.562 34.2552 101.383 34.6875 101.383C35.0417 101.383 35.3073 101.513 35.4844 101.773C35.6198 101.966 35.6875 102.18 35.6875 102.414C35.6875 104.471 35.5911 106.076 35.3984 107.227C35.1068 109.003 34.5312 110.477 33.6719 111.648ZM44.7031 103.234C44.5833 103.234 44.4505 103.211 44.3047 103.164C43.6328 102.945 42.8125 102.836 41.8438 102.836C41.526 102.836 41.1589 102.857 40.7422 102.898C40.3307 102.94 39.8724 103.003 39.3672 103.086C39.3776 104.086 39.3776 104.945 39.3672 105.664C40.1589 105.471 40.8151 105.375 41.3359 105.375C42.3047 105.375 43.1484 105.419 43.8672 105.508C44.5391 105.591 44.875 105.945 44.875 106.57C44.875 106.872 44.7682 107.125 44.5547 107.328C44.3411 107.531 44.0807 107.633 43.7734 107.633C43.5026 107.633 43.0964 107.612 42.5547 107.57C42.013 107.529 41.6068 107.508 41.3359 107.508C40.9557 107.508 40.2995 107.628 39.3672 107.867V112.766C39.3672 113.068 39.2474 113.32 39.0078 113.523C38.7734 113.727 38.5026 113.828 38.1953 113.828C37.8932 113.828 37.6484 113.727 37.4609 113.523C37.2734 113.326 37.1797 113.073 37.1797 112.766V103.812C37.1797 103.609 37.1823 103.302 37.1875 102.891C37.1979 102.479 37.2031 102.172 37.2031 101.969C37.2031 101.661 37.3047 101.406 37.5078 101.203C37.7161 101 37.9766 100.898 38.2891 100.898C38.487 100.898 38.6615 100.938 38.8125 101.016C39.4167 100.911 39.9714 100.836 40.4766 100.789C40.9818 100.737 41.4375 100.711 41.8438 100.711C42.4375 100.711 43.1849 100.833 44.0859 101.078C45.2161 101.385 45.7812 101.742 45.7812 102.148C45.7812 102.445 45.6745 102.701 45.4609 102.914C45.2526 103.128 45 103.234 44.7031 103.234ZM54.4219 103.234C54.3021 103.234 54.1693 103.211 54.0234 103.164C53.3516 102.945 52.5312 102.836 51.5625 102.836C51.2448 102.836 50.8776 102.857 50.4609 102.898C50.0495 102.94 49.5911 103.003 49.0859 103.086C49.0964 104.086 49.0964 104.945 49.0859 105.664C49.8776 105.471 50.5339 105.375 51.0547 105.375C52.0234 105.375 52.8672 105.419 53.5859 105.508C54.2578 105.591 54.5938 105.945 54.5938 106.57C54.5938 106.872 54.487 107.125 54.2734 107.328C54.0599 107.531 53.7995 107.633 53.4922 107.633C53.2214 107.633 52.8151 107.612 52.2734 107.57C51.7318 107.529 51.3255 107.508 51.0547 107.508C50.6745 107.508 50.0182 107.628 49.0859 107.867V112.766C49.0859 113.068 48.9661 113.32 48.7266 113.523C48.4922 113.727 48.2214 113.828 47.9141 113.828C47.612 113.828 47.3672 113.727 47.1797 113.523C46.9922 113.326 46.8984 113.073 46.8984 112.766V103.812C46.8984 103.609 46.901 103.302 46.9062 102.891C46.9167 102.479 46.9219 102.172 46.9219 101.969C46.9219 101.661 47.0234 101.406 47.2266 101.203C47.4349 101 47.6953 100.898 48.0078 100.898C48.2057 100.898 48.3802 100.938 48.5312 101.016C49.1354 100.911 49.6901 100.836 50.1953 100.789C50.7005 100.737 51.1562 100.711 51.5625 100.711C52.1562 100.711 52.9036 100.833 53.8047 101.078C54.9349 101.385 55.5 101.742 55.5 102.148C55.5 102.445 55.3932 102.701 55.1797 102.914C54.9714 103.128 54.7188 103.234 54.4219 103.234ZM65.3203 103.359C65.0547 103.906 64.5208 105.089 63.7188 106.906C63.0521 108.427 62.4844 109.62 62.0156 110.484C61.2031 111.984 60.7682 112.779 60.7109 112.867C60.4036 113.32 60.0495 113.547 59.6484 113.547C59.362 113.547 59.1094 113.453 58.8906 113.266C58.651 113.057 58.5312 112.799 58.5312 112.492C58.5312 112.237 59.0755 111.164 60.1641 109.273C59.763 108.695 59.1875 107.818 58.4375 106.641C57.875 105.776 57.0495 104.471 55.9609 102.727C55.8568 102.549 55.8047 102.365 55.8047 102.172C55.8047 101.87 55.9219 101.615 56.1562 101.406C56.375 101.214 56.6302 101.117 56.9219 101.117C57.2656 101.117 57.5781 101.292 57.8594 101.641L58.4453 102.578C58.4818 102.641 58.9297 103.401 59.7891 104.859C60.3307 105.792 60.8099 106.529 61.2266 107.07C61.6224 106.273 62.1927 105.068 62.9375 103.453C63.0938 103.094 63.3281 102.549 63.6406 101.82C63.8385 101.352 64.1771 101.117 64.6562 101.117C64.9427 101.117 65.1953 101.211 65.4141 101.398C65.6536 101.602 65.7734 101.857 65.7734 102.164C65.7734 102.341 65.6224 102.74 65.3203 103.359ZM77.7891 102.164C77.6849 102.544 77.6328 102.875 77.6328 103.156C77.6328 103.302 77.6172 103.529 77.5859 103.836C77.5599 104.138 77.5469 104.362 77.5469 104.508C77.5469 105.003 77.5208 105.737 77.4688 106.711C77.4167 107.685 77.3906 108.419 77.3906 108.914C77.3906 109.294 77.4193 109.862 77.4766 110.617C77.5339 111.372 77.5625 111.94 77.5625 112.32C77.5625 112.607 77.4609 112.849 77.2578 113.047C77.0547 113.245 76.8021 113.344 76.5 113.344C76.1927 113.344 75.9271 113.245 75.7031 113.047C75.4792 112.854 75.3672 112.617 75.3672 112.336C75.3672 111.956 75.349 111.385 75.3125 110.625C75.2812 109.865 75.2656 109.294 75.2656 108.914C75.2656 108.617 75.2708 108.354 75.2812 108.125C74.4635 108.161 73.4531 108.289 72.25 108.508C71.25 108.69 70.25 108.875 69.25 109.062C69.2396 109.417 69.2031 110.008 69.1406 110.836C69.0885 111.565 69.0625 112.161 69.0625 112.625C69.0625 112.911 68.9609 113.154 68.7578 113.352C68.5547 113.549 68.3021 113.648 68 113.648C67.6979 113.648 67.4453 113.549 67.2422 113.352C67.0391 113.154 66.9375 112.911 66.9375 112.625C66.9375 112.099 66.9818 111.312 67.0703 110.266C67.1641 109.219 67.2109 108.432 67.2109 107.906C67.2109 107.24 67.2266 106.237 67.2578 104.898C67.2891 103.555 67.3047 102.549 67.3047 101.883C67.3047 101.596 67.4062 101.354 67.6094 101.156C67.8125 100.958 68.0651 100.859 68.3672 100.859C68.6693 100.859 68.9219 100.958 69.125 101.156C69.3281 101.354 69.4297 101.596 69.4297 101.883C69.4297 102.279 69.4141 102.875 69.3828 103.672C69.3568 104.464 69.3438 105.057 69.3438 105.453C69.3438 105.583 69.3255 105.833 69.2891 106.203C69.2578 106.547 69.2448 106.81 69.25 106.992L72.25 106.43C73.4219 106.221 74.4323 106.102 75.2812 106.07C75.3021 105.721 75.3359 104.784 75.3828 103.258C75.3932 102.857 75.5156 102.396 75.75 101.875C76.0417 101.234 76.3724 100.914 76.7422 100.914C77.0182 100.914 77.263 101.005 77.4766 101.188C77.7057 101.385 77.8203 101.633 77.8203 101.93C77.8203 102.008 77.8099 102.086 77.7891 102.164ZM87.0234 102.984C86.9193 102.984 86.8099 102.969 86.6953 102.938C85.8516 102.708 85.0312 102.594 84.2344 102.594C83.8438 102.594 83.4245 102.625 82.9766 102.688C82.5286 102.75 82.0521 102.844 81.5469 102.969C81.5469 103.661 81.5234 104.69 81.4766 106.055C81.7682 106.034 82.7865 105.938 84.5312 105.766C85.526 105.667 86.1562 105.617 86.4219 105.617C86.7292 105.617 86.9922 105.716 87.2109 105.914C87.4297 106.107 87.5391 106.365 87.5391 106.688C87.5391 107.307 87.2083 107.659 86.5469 107.742C86.1302 107.773 85.5078 107.826 84.6797 107.898C83.9401 107.982 82.8255 108.083 81.3359 108.203C81.2995 108.865 81.2812 109.398 81.2812 109.805C81.2812 110.826 81.3411 111.406 81.4609 111.547C81.5182 111.615 81.8464 111.648 82.4453 111.648C82.7682 111.648 83.2552 111.641 83.9062 111.625C84.5573 111.609 85.0443 111.602 85.3672 111.602C85.4714 111.602 85.625 111.586 85.8281 111.555C86.0312 111.523 86.1823 111.508 86.2812 111.508C86.5833 111.508 86.8411 111.594 87.0547 111.766C87.2995 111.958 87.4219 112.229 87.4219 112.578C87.4219 113.161 87.1172 113.51 86.5078 113.625C85.987 113.724 84.9062 113.773 83.2656 113.773C81.5677 113.773 80.4609 113.544 79.9453 113.086C79.3776 112.581 79.0938 111.487 79.0938 109.805C79.0938 109.107 79.1432 108.06 79.2422 106.664C79.3464 105.263 79.3984 104.216 79.3984 103.523C79.3984 103.341 79.3724 103.073 79.3203 102.719C79.2682 102.359 79.2422 102.089 79.2422 101.906C79.2422 101.115 79.6068 100.719 80.3359 100.719C80.5651 100.719 80.776 100.784 80.9688 100.914C81.5729 100.763 82.1458 100.651 82.6875 100.578C83.2344 100.5 83.75 100.461 84.2344 100.461C85.5469 100.461 86.5964 100.612 87.3828 100.914C87.862 101.096 88.1016 101.427 88.1016 101.906C88.1016 102.177 88.0078 102.417 87.8203 102.625C87.612 102.865 87.3464 102.984 87.0234 102.984ZM98.125 113.234C97.7135 113.219 97.2995 112.734 96.8828 111.781C96.6068 111.167 96.3698 110.458 96.1719 109.656C95.7865 109.714 95.1562 109.771 94.2812 109.828C93.4583 109.885 92.8281 109.953 92.3906 110.031C92.151 110.604 91.7344 111.466 91.1406 112.617C90.9115 112.992 90.5938 113.18 90.1875 113.18C89.901 113.18 89.6432 113.083 89.4141 112.891C89.1849 112.693 89.0703 112.443 89.0703 112.141C89.0703 111.875 89.4505 110.974 90.2109 109.438C90.138 109.276 90.1068 109.125 90.1172 108.984C90.138 108.734 90.3906 108.539 90.875 108.398C91.6146 107.117 92.4375 105.789 93.3438 104.414C94.6458 102.44 95.4479 101.453 95.75 101.453C96.3229 101.453 96.7057 101.799 96.8984 102.492C97.0026 103.049 97.1667 103.885 97.3906 105C97.7083 106.5 98.0964 108.216 98.5547 110.148C98.5911 110.294 98.724 110.638 98.9531 111.18C99.1406 111.628 99.2344 111.964 99.2344 112.188C99.2344 112.49 99.1198 112.742 98.8906 112.945C98.6667 113.148 98.4115 113.245 98.125 113.234ZM95.2109 105.219C94.8047 105.917 94.2448 106.867 93.5312 108.07C93.7656 108.018 94.1302 107.977 94.625 107.945C95.2083 107.909 95.5755 107.88 95.7266 107.859C95.6016 107.182 95.4297 106.302 95.2109 105.219ZM108.203 112.703C107.589 112.974 106.638 113.216 105.352 113.43C104.174 113.628 103.208 113.727 102.453 113.727C101.177 113.727 100.539 113.167 100.539 112.047C100.539 112.135 100.591 111.31 100.695 109.57C100.831 107.31 100.898 104.794 100.898 102.023C100.898 101.727 101 101.474 101.203 101.266C101.411 101.057 101.672 100.953 101.984 100.953C102.297 100.953 102.557 101.057 102.766 101.266C102.974 101.474 103.078 101.727 103.078 102.023C103.078 104.799 103.008 107.357 102.867 109.695C102.82 110.112 102.771 110.75 102.719 111.609C103.953 111.589 105.536 111.286 107.469 110.703C107.589 110.667 107.703 110.648 107.812 110.648C108.141 110.648 108.406 110.768 108.609 111.008C108.792 111.221 108.883 111.461 108.883 111.727C108.883 112.174 108.656 112.5 108.203 112.703Z" fill="black"/>
<path d="M1 95H111" stroke="black" stroke-width="2" stroke-linecap="round" stroke-linejoin="round"/>
<path d="M78.113 13.0686L80.6007 6.02857L82.5909 7.53714L80.1032 14.5771L78.113 13.0686Z" fill="black"/>
<path d="M66.6695 9.04571V1H69.1572V9.04571H66.6695Z" fill="black"/>
<path d="M56.2211 14.5771L53.2359 7.53714L55.226 6.02857L58.0207 13.0686L56.2211 14.5771Z" fill="black"/>
<path d="M76.1229 24.6343C81.0983 25.64 81.0983 25.64 85.5762 28.1543L84.0835 17.5943L76.1229 24.6343Z" fill="black"/>
<path fill-rule="evenodd" clip-rule="evenodd" d="M11.4423 89C11.4423 89 10.4472 89 11.4423 86.9886C11.4423 86.9886 14.4275 78.44 37.812 78.44C37.812 78.44 31.344 71.4 31.344 59.8343C31.344 48.2686 36.817 35.6971 48.2604 30.1657L51.2457 15.08L62.6892 25.64H67.6646C87.0688 25.64 101 40.7257 101 59.8343C101 78.9429 85.5762 89 67.6646 89H11.4423ZM68.0582 33.6857C64.6988 33.6857 63.3097 37.4628 63.1934 40.8561C63.071 44.4319 64.5181 48.5869 68.0582 48.5869C71.5984 48.5869 73.0455 44.4319 72.923 40.8561C72.8068 37.4628 71.4176 33.6857 68.0582 33.6857ZM82.1972 33.8703C78.8378 33.8703 77.4487 37.6474 77.3324 41.0406C77.21 44.6164 78.6571 48.7714 82.1972 48.7714C85.7373 48.7714 87.1845 44.6164 87.062 41.0406C86.9458 37.6474 85.5566 33.8702 82.1972 33.8703Z" fill="black"/>
<path d="M63.1934 40.8561C63.3097 37.4628 64.6988 33.6857 68.0582 33.6857C71.4176 33.6857 72.8068 37.4628 72.923 40.8561C73.0455 44.4319 71.5984 48.5869 68.0582 48.5869C64.5181 48.5869 63.071 44.4319 63.1934 40.8561Z" fill="white"/>
<path d="M77.3324 41.0406C77.4487 37.6474 78.8378 33.8703 82.1972 33.8703C85.5566 33.8702 86.9458 37.6474 87.062 41.0406C87.1845 44.6164 85.7373 48.7714 82.1972 48.7714C78.6571 48.7714 77.21 44.6164 77.3324 41.0406Z" fill="white"/>
<path d="M78.113 13.0686L80.6007 6.02857L82.5909 7.53714L80.1032 14.5771L78.113 13.0686Z" stroke="black" stroke-linejoin="round"/>
<path d="M66.6695 9.04571V1H69.1572V9.04571H66.6695Z" stroke="black" stroke-linejoin="round"/>
<path d="M56.2211 14.5771L53.2359 7.53714L55.226 6.02857L58.0207 13.0686L56.2211 14.5771Z" stroke="black" stroke-linejoin="round"/>
<path d="M76.1229 24.6343C81.0983 25.64 81.0983 25.64 85.5762 28.1543L84.0835 17.5943L76.1229 24.6343Z" stroke="black" stroke-linejoin="round"/>
<path fill-rule="evenodd" clip-rule="evenodd" d="M11.4423 89C11.4423 89 10.4472 89 11.4423 86.9886C11.4423 86.9886 14.4275 78.44 37.812 78.44C37.812 78.44 31.344 71.4 31.344 59.8343C31.344 48.2686 36.817 35.6971 48.2604 30.1657L51.2457 15.08L62.6892 25.64H67.6646C87.0688 25.64 101 40.7257 101 59.8343C101 78.9429 85.5762 89 67.6646 89H11.4423ZM68.0582 33.6857C64.6988 33.6857 63.3097 37.4628 63.1934 40.8561C63.071 44.4319 64.5181 48.5869 68.0582 48.5869C71.5984 48.5869 73.0455 44.4319 72.923 40.8561C72.8068 37.4628 71.4176 33.6857 68.0582 33.6857ZM82.1972 33.8703C78.8378 33.8703 77.4487 37.6474 77.3324 41.0406C77.21 44.6164 78.6571 48.7714 82.1972 48.7714C85.7373 48.7714 87.1845 44.6164 87.062 41.0406C86.9458 37.6474 85.5566 33.8702 82.1972 33.8703Z" stroke="black" stroke-linejoin="round"/>
<path d="M63.1934 40.8561C63.3097 37.4628 64.6988 33.6857 68.0582 33.6857C71.4176 33.6857 72.8068 37.4628 72.923 40.8561C73.0455 44.4319 71.5984 48.5869 68.0582 48.5869C64.5181 48.5869 63.071 44.4319 63.1934 40.8561Z" stroke="black" stroke-linejoin="round"/>
<path d="M77.3324 41.0406C77.4487 37.6474 78.8378 33.8703 82.1972 33.8703C85.5566 33.8702 86.9458 37.6474 87.062 41.0406C87.1845 44.6164 85.7373 48.7714 82.1972 48.7714C78.6571 48.7714 77.21 44.6164 77.3324 41.0406Z" stroke="black" stroke-linejoin="round"/>
</svg>
