<svg width="36" height="36" viewBox="0 0 36 36" fill="none" xmlns="http://www.w3.org/2000/svg">
<g clip-path="url(#clip0_58_196)">
<circle cx="18" cy="18" r="17" fill="white"/>
<path d="M18.0001 18C20.6842 18 22.8601 15.8241 22.8601 13.14C22.8601 10.4559 20.6842 8.28003 18.0001 8.28003C15.316 8.28003 13.1401 10.4559 13.1401 13.14C13.1401 15.8241 15.316 18 18.0001 18Z" stroke="#1C1C1C" stroke-width="2"/>
<path d="M27.6699 30.96C27.4122 26.2758 25.978 22.86 17.9998 22.86C10.0218 22.86 8.58766 26.2758 8.32983 30.96" stroke="#1C1C1C" stroke-width="2" stroke-linecap="round"/>
<path d="M9.90005 3.96726C12.2829 2.58888 15.0494 1.79999 18 1.79999C26.947 1.79999 34.2001 9.05297 34.2001 18C34.2001 26.9469 26.947 34.2 18 34.2C9.05303 34.2 1.80005 26.9469 1.80005 18C1.80005 15.0493 2.58894 12.2828 3.96732 9.89999" stroke="#1C1C1C" stroke-width="3" stroke-linecap="round"/>
</g>
<defs>
<clipPath id="clip0_58_196">
<rect width="36" height="36" fill="white"/>
</clipPath>
</defs>
</svg>
