<svg width="53" height="53" viewBox="0 0 53 53" fill="none" xmlns="http://www.w3.org/2000/svg">
<path d="M50.2258 3.64377C49.0871 3.37463 47.9381 4.07854 47.6689 5.21721L46.3647 10.7449C41.6029 4.74104 34.3361 1.14905 26.5 1.14905C15.5273 1.14905 1.13867 9.14045 1.13867 26.5104C1.13867 27.6801 2.09102 28.6324 3.26074 28.6324C4.43047 28.6324 5.38281 27.6905 5.38281 26.5207C5.38281 14.8752 14.8545 5.40354 26.5 5.40354C32.9801 5.40354 38.9943 8.34338 42.959 13.2811L36.9344 11.8629C35.7957 11.5938 34.6467 12.2977 34.3775 13.4364C34.1084 14.575 34.8123 15.724 35.951 15.9932L46.7166 18.5293C47.7621 18.8399 49.1182 18.0221 49.2734 16.9559L51.8096 6.20061C52.0787 5.06194 51.3645 3.91291 50.2258 3.64377Z" fill="#0E56A8"/>
<path d="M49.584 26.1481C48.4868 26.1481 47.5655 26.9865 47.4723 28.0735C46.4993 38.8184 37.4416 47.2653 26.4379 47.2653C21.5002 47.2653 16.811 45.5469 13.0948 42.5139L17.4942 43.549C18.6122 43.8182 19.7715 43.166 20.0821 42.0584C20.403 40.8887 19.6887 39.7086 18.519 39.4291L7.76372 36.9033C6.91489 36.6653 5.49672 37.0897 5.20688 38.5078L2.67075 49.2321C2.40161 50.3707 3.10551 51.5197 4.24419 51.7889C4.40981 51.8303 6.20063 52.2237 6.80102 50.2155L8.29165 43.8906C13.0223 48.7352 19.5334 51.5301 26.4276 51.5301C33.1975 51.5301 39.5741 48.8905 44.3565 44.0977C48.6006 39.8535 51.1471 34.3776 51.6854 28.4772C51.8096 27.2246 50.8262 26.1481 49.584 26.1481Z" fill="#0E56A8"/>
<path d="M20.4858 27.2867L16.8834 30.7338V32.8869H25.1647V30.5889H20.0614V30.5371L22.6492 28.2391C24.409 26.676 25.2889 25.1543 25.2889 23.6844C25.2889 22.5871 24.9266 21.7073 24.202 21.0655C23.4774 20.4237 22.4733 20.0924 21.1897 20.0924C19.8129 20.0924 18.5811 20.4444 17.4838 21.1586V23.6016C18.4672 22.7424 19.5024 22.3076 20.5893 22.3076C21.8315 22.3076 22.4526 22.8873 22.4526 24.0467C22.4526 24.5643 22.3076 25.0612 22.0074 25.5373C21.7176 26.0135 21.2104 26.5932 20.4858 27.2867Z" fill="#0E56A8"/>
<path d="M31.8828 20.3202L26.6035 28.4565V30.2163H32.0898V32.887H34.6156V30.2163H36.127V28.2391H34.6156V20.3098H31.8828V20.3202ZM32.0795 24.2952V28.2495H28.8912L31.5826 24.0778C31.8207 23.6327 31.976 23.3014 32.0588 23.0944H32.1105C32.0898 23.5499 32.0795 23.9536 32.0795 24.2952Z" fill="#0E56A8"/>
</svg>
