<svg width="20" height="20" viewBox="0 0 20 20" fill="none" xmlns="http://www.w3.org/2000/svg">
<path d="M5.93081 10.9945L12.2199 4.70544C12.2874 4.63788 12.8265 4.09882 13.6797 3.80701C14.8699 3.42535 16.0832 3.73944 17.0492 4.70544C18.0374 5.67144 18.3292 6.86169 17.9476 8.05194C17.6781 8.90582 17.1167 9.48944 17.0492 9.55701L10.2886 16.3176C9.12062 17.4855 6.20034 18.9906 3.50503 16.3176C0.832 13.6445 2.35934 10.702 3.50503 9.55701L10.7601 2.27966C11.0296 2.01013 11.4566 2.01013 11.7261 2.27966C11.9956 2.54919 11.9956 2.97613 11.7261 3.24566L4.49331 10.523C4.38119 10.6129 2.11209 12.9711 4.49331 15.3523C6.80697 17.6659 9.07534 15.5995 9.32259 15.3523L16.0832 8.56873C16.0832 8.56873 16.4648 8.18707 16.6445 7.64801C16.8695 6.92926 16.7121 6.30035 16.0832 5.67144C14.7355 4.32379 13.4324 5.44648 13.1859 5.67144L6.89681 11.9382C6.67184 12.1632 6.51516 12.5449 6.89681 12.9265C7.27847 13.3082 7.63784 13.1285 7.86281 12.9265L12.2206 8.56873C12.4901 8.32148 12.9393 8.32148 13.1866 8.56873C13.4561 8.83826 13.4561 9.28748 13.1866 9.55701L8.82881 13.8918C8.22219 14.4761 6.98666 14.9476 5.93153 13.8918C4.85341 12.8359 5.32419 11.5781 5.93081 10.9945Z" fill="black"/>
</svg>
