<svg width="25" height="25" viewBox="0 0 25 25" fill="none" xmlns="http://www.w3.org/2000/svg">
<path fill-rule="evenodd" clip-rule="evenodd" d="M12.5 18.75C15.9518 18.75 18.75 15.9518 18.75 12.5C18.75 9.04822 15.9518 6.25 12.5 6.25C9.04822 6.25 6.25 9.04822 6.25 12.5C6.25 15.9518 9.04822 18.75 12.5 18.75ZM12.5 16.6667C14.8011 16.6667 16.6667 14.8011 16.6667 12.5C16.6667 10.1988 14.8011 8.33333 12.5 8.33333C10.1988 8.33333 8.33333 10.1988 8.33333 12.5C8.33333 14.8011 10.1988 16.6667 12.5 16.6667Z" fill="#D23265"/>
<path d="M18.7499 5.20834C18.1746 5.20834 17.7083 5.67472 17.7083 6.25001C17.7083 6.8253 18.1746 7.29168 18.7499 7.29168C19.3252 7.29168 19.7916 6.8253 19.7916 6.25001C19.7916 5.67472 19.3252 5.20834 18.7499 5.20834Z" fill="#D23265"/>
<path fill-rule="evenodd" clip-rule="evenodd" d="M1.72296 4.45422C1.04175 5.79117 1.04175 7.54133 1.04175 11.0417V13.9583C1.04175 17.4586 1.04175 19.2088 1.72296 20.5457C2.32216 21.7218 3.27829 22.6779 4.45431 23.2771C5.79126 23.9583 7.54143 23.9583 11.0417 23.9583H13.9584C17.4587 23.9583 19.2089 23.9583 20.5458 23.2771C21.7219 22.6779 22.678 21.7218 23.2772 20.5457C23.9584 19.2088 23.9584 17.4586 23.9584 13.9583V11.0417C23.9584 7.54133 23.9584 5.79117 23.2772 4.45422C22.678 3.2782 21.7219 2.32207 20.5458 1.72286C19.2089 1.04166 17.4587 1.04166 13.9584 1.04166H11.0417C7.54143 1.04166 5.79126 1.04166 4.45431 1.72286C3.27829 2.32207 2.32216 3.2782 1.72296 4.45422ZM13.9584 3.12499H11.0417C9.25721 3.12499 8.04409 3.12661 7.10642 3.20322C6.19304 3.27784 5.72596 3.4131 5.40012 3.57913C4.61611 3.9786 3.9787 4.61602 3.57922 5.40003C3.4132 5.72587 3.27794 6.19295 3.20331 7.10632C3.12671 8.044 3.12508 9.25712 3.12508 11.0417V13.9583C3.12508 15.7429 3.12671 16.9559 3.20331 17.8936C3.27794 18.8071 3.4132 19.2742 3.57922 19.6C3.9787 20.3839 4.61611 21.0213 5.40012 21.4208C5.72596 21.5869 6.19304 21.7222 7.10642 21.7968C8.04409 21.8733 9.25721 21.875 11.0417 21.875H13.9584C15.743 21.875 16.956 21.8733 17.8937 21.7968C18.8072 21.7222 19.2743 21.5869 19.6001 21.4208C20.384 21.0213 21.0214 20.3839 21.4209 19.6C21.587 19.2742 21.7223 18.8071 21.7969 17.8936C21.8734 16.9559 21.8751 15.7429 21.8751 13.9583V11.0417C21.8751 9.25712 21.8734 8.044 21.7969 7.10632C21.7223 6.19295 21.587 5.72587 21.4209 5.40003C21.0214 4.61602 20.384 3.9786 19.6001 3.57913C19.2743 3.4131 18.8072 3.27784 17.8937 3.20322C16.956 3.12661 15.743 3.12499 13.9584 3.12499Z" fill="#D23265"/>
</svg>
