<svg width="25" height="25" viewBox="0 0 25 25" fill="none" xmlns="http://www.w3.org/2000/svg">
<path d="M3.00424 11.4755C3.00424 11.4755 11.5274 7.98827 14.4834 6.76041C15.6165 6.26926 19.4593 4.69752 19.4593 4.69752C19.4593 4.69752 21.2329 4.01002 21.0851 5.67981C21.0357 6.36744 20.6416 8.77408 20.2475 11.3772C19.6563 15.0609 19.0158 19.0883 19.0158 19.0883C19.0158 19.0883 18.9174 20.218 18.0799 20.4144C17.2423 20.6109 15.8628 19.7268 15.6165 19.5303C15.4195 19.3829 11.9216 17.1728 10.6407 16.0923C10.2958 15.7976 9.90163 15.2082 10.6899 14.5206C12.4635 12.8999 14.582 10.8861 15.8628 9.6091C16.454 9.01965 17.0453 7.64439 14.582 9.31431C11.0841 11.721 7.63536 13.9803 7.63536 13.9803C7.63536 13.9803 6.8472 14.4715 5.36921 14.0294C3.89122 13.5874 2.16687 12.998 2.16687 12.998C2.16687 12.998 0.984575 12.2612 3.0045 11.4755H3.00424Z" stroke="#11AADE" stroke-width="2"/>
</svg>
