<svg width="25" height="25" viewBox="0 0 25 25" fill="none" xmlns="http://www.w3.org/2000/svg">
<path d="M24.4334 6.02499C24.1521 6.90937 23.773 7.67916 23.298 8.37812L23.3178 8.34687C22.8511 9.12464 22.2938 10.0233 21.6459 11.0427C21.0903 11.8476 20.7962 12.2642 20.7636 12.2927C20.6198 12.4729 20.5198 12.6937 20.4855 12.9364L20.4844 12.9437C20.5125 13.1646 20.6146 13.3573 20.7636 13.501L21.1803 13.9656C23.4094 16.2566 24.6632 17.8358 24.9417 18.7031C24.9782 18.7989 24.999 18.9094 24.999 19.025C24.999 19.2271 24.9344 19.4135 24.825 19.5667L24.8271 19.5635C24.6438 19.7521 24.3875 19.8687 24.1042 19.8687C24.073 19.8687 24.0407 19.8677 24.0105 19.8646H24.0146H21.274C21.273 19.8646 21.2709 19.8646 21.2688 19.8646C20.9178 19.8646 20.5948 19.7417 20.3417 19.5375L20.3448 19.5396C19.9761 19.2364 19.648 18.9083 19.3542 18.5521L19.3448 18.5396C18.865 17.9972 18.4393 17.5406 18.0678 17.1698C16.8303 15.9934 15.9171 15.4052 15.3282 15.4052C15.3063 15.4031 15.2813 15.4021 15.2553 15.4021C15.0834 15.4021 14.923 15.4552 14.7907 15.5458L14.7938 15.5437C14.6855 15.6792 14.6198 15.8542 14.6198 16.0427C14.6198 16.0802 14.6219 16.1156 14.6271 16.1521V16.1479C14.599 16.475 14.5823 16.8552 14.5823 17.2396C14.5823 17.3635 14.5844 17.4865 14.5875 17.6094V17.5917V18.799C14.598 18.8479 14.6042 18.9042 14.6042 18.9614C14.6042 19.2135 14.4896 19.4385 14.3105 19.5875L14.3094 19.5885C13.9063 19.7729 13.4355 19.8812 12.9386 19.8812C12.8323 19.8812 12.7282 19.876 12.625 19.8667L12.6386 19.8677C10.999 19.8364 9.47817 19.3562 8.18546 18.5469L8.22192 18.5677C6.64797 17.6115 5.3438 16.3667 4.35005 14.8958L4.32192 14.8521C3.37817 13.6 2.49797 12.1854 1.74797 10.6937L1.67505 10.5333C1.23651 9.69791 0.78234 8.67083 0.390674 7.61457L0.328174 7.42187C0.168799 6.94687 0.0531738 6.39478 0.00525716 5.82291L0.00317383 5.79687C0.00317383 5.27048 0.312896 5.00728 0.93234 5.00728H3.67192C3.69692 5.0052 3.72609 5.00416 3.7563 5.00416C4.01463 5.00416 4.25317 5.0927 4.44172 5.24166L4.43963 5.23958C4.64797 5.4677 4.80213 5.74791 4.87817 6.06041L4.8813 6.07291C5.38547 7.49687 5.91984 8.6927 6.53442 9.83853L6.46463 9.69582C6.96672 10.7062 7.52192 11.576 8.15526 12.3792L8.1313 12.3469C8.68685 13.0288 9.12019 13.3698 9.4313 13.3698C9.44067 13.3708 9.45213 13.3708 9.46463 13.3708C9.6188 13.3708 9.75317 13.2875 9.82609 13.1625L9.82713 13.1604C9.90421 12.9625 9.94901 12.7323 9.94901 12.4927C9.94901 12.4417 9.94692 12.3906 9.94276 12.3406V12.3469V8.30624C9.92088 7.8302 9.80422 7.38541 9.60942 6.98645L9.61776 7.00624C9.48859 6.73124 9.33338 6.49374 9.14901 6.28228L9.15213 6.28645C8.9813 6.11562 8.86463 5.89166 8.82817 5.64166L8.82713 5.63541C8.82713 5.45832 8.90838 5.29895 9.03546 5.19478L9.03651 5.19374C9.16255 5.07812 9.3313 5.00833 9.51567 5.00833H9.52401H13.8428C13.8657 5.0052 13.8917 5.00416 13.9188 5.00416C14.1219 5.00416 14.3042 5.09583 14.425 5.23958L14.4261 5.24062C14.5334 5.43645 14.5969 5.67083 14.5969 5.91874C14.5969 5.95833 14.5948 5.99687 14.5917 6.03541V6.0302V11.4187C14.5896 11.4437 14.5886 11.4729 14.5886 11.5021C14.5886 11.6937 14.6417 11.8739 14.7334 12.0271L14.7313 12.0229C14.8073 12.1354 14.9344 12.2083 15.0782 12.2083C15.2615 12.1958 15.4292 12.1354 15.5698 12.0396L15.5667 12.0417C15.85 11.8469 16.0938 11.625 16.3053 11.3739L16.3094 11.3687C16.9417 10.6542 17.525 9.86457 18.0334 9.02499L18.074 8.95207C18.4323 8.35832 18.8198 7.62707 19.1709 6.87603L19.2355 6.72291L19.7 5.79374C19.8615 5.32916 20.2948 5.00208 20.8042 5.00208C20.824 5.00208 20.8438 5.00208 20.8636 5.00312H20.8605H23.6011C24.3414 5.00312 24.6191 5.34374 24.4344 6.02499H24.4334Z" fill="#586D8C"/>
</svg>
